<svg xmlns="http://www.w3.org/2000/svg" viewBox="0 0 520 200" width="520" height="200">

  <!-- Octagon shape -->
  <polygon points="60,30 110,30 140,60 140,110 110,140 60,140 30,110 30,60"
    fill="none" stroke="url(#goldGrad)" stroke-width="2.5"/>

  <!-- Corner dots -->
  <circle cx="60" cy="30" r="4" fill="url(#goldGrad)"/>
  <circle cx="110" cy="30" r="4" fill="url(#goldGrad)"/>
  <circle cx="140" cy="60" r="4" fill="url(#goldGrad)"/>
  <circle cx="140" cy="110" r="4" fill="url(#goldGrad)"/>
  <circle cx="110" cy="140" r="4" fill="url(#goldGrad)"/>
  <circle cx="60" cy="140" r="4" fill="url(#goldGrad)"/>
  <circle cx="30" cy="110" r="4" fill="url(#goldGrad)"/>
  <circle cx="30" cy="60" r="4" fill="url(#goldGrad)"/>

  <!-- "A" letter inside octagon -->
  <text x="85" y="125" text-anchor="middle" font-family="Georgia, serif" font-size="80" font-weight="bold" fill="url(#goldGrad)">A</text>

  <!-- AURIS text -->
  <text x="220" y="105" text-anchor="start" font-family="Georgia, 'Times New Roman', serif" font-size="72" font-weight="600" letter-spacing="6" fill="url(#goldGrad)">AURIS</text>

  <!-- PVT LTD with dashes -->
  <line x1="165" y1="130" x2="185" y2="130" stroke="url(#goldGrad)" stroke-width="1.5"/>
  <text x="330" y="136" text-anchor="middle" font-family="Georgia, serif" font-size="22" letter-spacing="8" fill="url(#goldGrad)">PVT LTD</text>
  <line x1="475" y1="130" x2="495" y2="130" stroke="url(#goldGrad)" stroke-width="1.5"/>

  <defs>
    <linearGradient id="goldGrad" x1="0%" y1="0%" x2="100%" y2="100%">
      <stop offset="0%" style="stop-color:#E4CC7A"/>
      <stop offset="50%" style="stop-color:#C9A84C"/>
      <stop offset="100%" style="stop-color:#A8832A"/>
    </linearGradient>
  </defs>
</svg>
